<?xml version="1.0" encoding="UTF-8"?>
<svg width="307.73" height="95.04" version="1.1" viewBox="0 0 307.73 95.04" xmlns="http://www.w3.org/2000/svg" xmlns:cc="http://creativecommons.org/ns#" xmlns:dc="http://purl.org/dc/elements/1.1/" xmlns:rdf="http://www.w3.org/1999/02/22-rdf-syntax-ns#">
 <metadata>
  <rdf:RDF>
   <cc:Work rdf:about="">
    <dc:format>image/svg+xml</dc:format>
    <dc:type rdf:resource="http://purl.org/dc/dcmitype/StillImage"/>
    <dc:title/>
   </cc:Work>
  </rdf:RDF>
 </metadata>
 <defs>
  <style>.cls-1{isolation:isolate;}.cls-2{fill:#ffffff;}.cls-3,.cls-4{fill:#ffffff;}.cls-4{mix-blend-mode:screen;opacity:0.5;}</style>
 </defs>
 <path class="cls-3" d="m60.94 70.51a27 27 0 0 1 7.29 16.06 41.94 41.94 0 0 1-23.51 8.47h-1.87a42 42 0 0 1-25.79-8.82c-0.9-0.7-1.77-1.43-2.61-2.21a26.29 26.29 0 0 1 1.1-4.05 27.26 27.26 0 0 1 8.26-11.78 27 27 0 0 1 3-2.16 24.59 24.59 0 0 1 3.25-1.72 25.58 25.58 0 0 1 4.56-1.57c0-0.34 0-0.68-0.06-1-0.13-1.87-0.32-3.71-0.59-5.53-0.24-1.69-0.54-3.36-0.89-5-0.12-0.57-0.25-1.13-0.39-1.69a72.6 72.6 0 0 0-2.48-8.2c-0.61-1.64-1.27-3.26-2-4.84-0.14-0.32-0.29-0.63-0.45-1-0.37 0.31-0.74 0.64-1.09 1s-1 1-1.43 1.47a24.26 24.26 0 0 0-3.24 4.64 24.13 24.13 0 0 0-2.5 15.47c0.06 0.42 0.15 0.84 0.25 1.25-0.26-0.38-0.51-0.78-0.74-1.18a22.8 22.8 0 0 1-1.72-19.34 26 26 0 0 0-15.3 23.77v0.64a42.17 42.17 0 0 1-1.25-10.24c0-0.89 0-1.77 0.08-2.64a41.88 41.88 0 0 1 7.66-21.69 26.87 26.87 0 0 0-3.83-0.27 26.37 26.37 0 0 0-4.65 0.41 19.33 19.33 0 0 1 16.47-9.19h0.69a1.07 1.07 0 0 1 0.25 0 0.86 0.86 0 0 1 0.06-0.23q0.24-0.95 0.57-1.86a27 27 0 0 1 19.65-17.48 26.66 26.66 0 0 0-3.68 11.78 42.1 42.1 0 0 1 34.34 7.71 26.12 26.12 0 0 0-30.22 4.4h0.51a22.75 22.75 0 0 1 19.56 11.12 24 24 0 0 0-14.85-5.15 23.62 23.62 0 0 0-3.88 0.32 22.78 22.78 0 0 0-5.07 1.4c-0.57 0.22-1.13 0.47-1.67 0.74q1.57 2.11 3 4.35c0.25 0.38 0.49 0.77 0.72 1.16a72.83 72.83 0 0 1 7.13 15.48 71.72 71.72 0 0 1 2.32 9.07 26.54 26.54 0 0 1 6.81 2.16c0.48 0.21 0.94 0.45 1.4 0.7a26.52 26.52 0 0 1 4.91 3.4 24.6 24.6 0 0 1 1.92 1.87z" style="isolation:isolate"/>
 <path class="cls-4" d="m56.35 51.37a10.61 10.61 0 0 0 15.54 6.24 10.35 10.35 0 0 0 3.21-2.88 15 15 0 0 1-10-16.81 11 11 0 0 0-1.47 0.31 10.63 10.63 0 0 0-5.46 3.69 10.35 10.35 0 0 0-1 1.54 10.56 10.56 0 0 0-0.82 7.91z" style="isolation:isolate"/>
 <path class="cls-3" d="m96.12 56.38h-4.15v-15c0-2.45 1.76-4.09 5.45-4.09 3.3 0 4.78 1.34 5.76 3.48l6.93 12a1.63 1.63 0 0 0 1.51 0.78c0.88 0 1.4-0.41 1.4-1v-14.92h4.19v15c0 2.48-1.8 4.12-5.45 4.12-3.3 0-4.82-1.34-5.8-3.48l-6.92-12a1.5 1.5 0 0 0-1.48-0.81c-1 0-1.44 0.42-1.44 1.08z" style="isolation:isolate"/>
 <path class="cls-3" d="m123.13 53.11v3.28h19.64v-3.28zm19.58-15.49h-19.58v3.29h19.58zm-0.29 7.87h-19.29v3h19.29z" style="isolation:isolate"/>
 <path class="cls-3" d="m153.07 37.63v12.53c0 1.86 1.2 3 3.94 3h6c2.67 0 3.9-1.09 3.9-3v-12.53h4.07v12.78c0 4-2.63 6-7.69 6h-6.77c-5.07 0-7.67-2-7.67-6v-12.78z" style="isolation:isolate"/>
 <path class="cls-3" d="m180.44 37.63v12.25c0 1.81 1.12 3.23 4.84 3.23h9.21v3.27h-9.45c-6.29 0-8.75-2.72-8.75-6.47v-12.28z" style="isolation:isolate"/>
 <path class="cls-3" d="m202.53 56.38h-4.57l8.33-16.67c0.88-1.75 2.49-2.42 5-2.42s4.07 0.67 4.92 2.42l8 16.67h-4.6l-7.21-15.09a1.14 1.14 0 0 0-1.16-0.63 1.22 1.22 0 0 0-1.19 0.63z" style="isolation:isolate"/>
 <path class="cls-3" d="m232.72 56.38h-4.14v-15c0-2.45 1.75-4.09 5.44-4.09 3.31 0 4.78 1.34 5.77 3.48l6.92 12a1.64 1.64 0 0 0 1.51 0.78c0.88 0 1.41-0.41 1.41-1v-14.92h4.18v15c0 2.48-1.79 4.12-5.45 4.12-3.3 0-4.81-1.34-5.8-3.48l-6.92-12a1.48 1.48 0 0 0-1.47-0.81c-0.95 0-1.45 0.42-1.45 1.08z" style="isolation:isolate"/>
 <path class="cls-3" d="m273.4 37.62h-11.93c-1.33 0-2 0.51-2 1.53v10.07h4.15v-8c0-0.25 0.14-0.33 0.46-0.33h9.29c4.6 0 6.53 1.8 6.53 6.08s-1.93 6.12-6.53 6.12h-13.9v1.74c0 1 0.64 1.54 2 1.54h11.93c7 0 10.68-3.06 10.68-9.37s-3.73-9.38-10.68-9.38z" style="isolation:isolate"/>
 <rect class="cls-4" x="288.09" y="53.11" width="19.64" height="3.28" style="isolation:isolate"/>
</svg>
